# xmcd
# 
# Track frame offsets:
#     182
#     13997
#     30582
#     49595
#     63407
#     78087
#     89877
#     102322
#     116430
#     131080
# 
# Disc length: 1964
# 
# Revision: 5
# Processed by: cddbd v1.5.2PL0 Copyright (c) Steve Scherf et al.
# Submitted via: BonkEnc v1.0.0
# 
DISCID=8107aa0a
DTITLE=AARON BARKER - The Taste of Freedom
DYEAR=1992
DGENRE=Country-Rock
TTITLE0=The taste of freedom
TTITLE1=God still live on Tennessee
TTITLE2=Fast water
TTITLE3=No sleep tonight
TTITLE4=Crazy again
TTITLE5=Three nickels and a dime
TTITLE6=Is it already time
TTITLE7=The world is flat
TTITLE8=Your old sompin' grounds
TTITLE9=What love has to say
EXTD=
EXTT0=
EXTT1=
EXTT2=
EXTT3=
EXTT4=
EXTT5=
EXTT6=
EXTT7=
EXTT8=
EXTT9=
PLAYORDER=
